<svg width="132" height="128" viewBox="0 0 132 128" fill="none" xmlns="http://www.w3.org/2000/svg">
<g opacity="0.3">
<rect width="13.2161" height="3.77602" rx="1.88801" transform="matrix(-0.691576 0.72218 -0.724926 -0.688957 22.8672 44.2466)" fill="#6057E0"/>
<rect width="13.2161" height="3.77602" rx="1.88801" transform="matrix(-0.691576 0.72218 -0.724926 -0.688957 22.8672 44.2466)" fill="#6057E0"/>
<rect width="13.2161" height="3.77602" rx="1.88801" transform="matrix(-0.691576 0.72218 -0.724926 -0.688957 22.8672 44.2466)" fill="#6057E0"/>
<rect width="13.2161" height="3.77602" rx="1.88801" transform="matrix(-0.724926 -0.688957 0.691576 -0.72218 20.4132 53.6338)" fill="#6057E0"/>
<rect width="13.2161" height="3.77602" rx="1.88801" transform="matrix(-0.724926 -0.688957 0.691576 -0.72218 20.4132 53.6338)" fill="#6057E0"/>
<rect width="13.2161" height="3.77602" rx="1.88801" transform="matrix(-0.724926 -0.688957 0.691576 -0.72218 20.4132 53.6338)" fill="#6057E0"/>
</g>
<g opacity="0.3">
<rect width="13.2161" height="3.77602" rx="1.88801" transform="matrix(-0.691576 0.72218 -0.724926 -0.688957 55.9927 77.7466)" fill="#6057E0"/>
<rect width="13.2161" height="3.77602" rx="1.88801" transform="matrix(-0.691576 0.72218 -0.724926 -0.688957 55.9927 77.7466)" fill="#6057E0"/>
<rect width="13.2161" height="3.77602" rx="1.88801" transform="matrix(-0.691576 0.72218 -0.724926 -0.688957 55.9927 77.7466)" fill="#6057E0"/>
<rect width="13.2161" height="3.77602" rx="1.88801" transform="matrix(-0.724926 -0.688957 0.691576 -0.72218 53.5387 87.1338)" fill="#6057E0"/>
<rect width="13.2161" height="3.77602" rx="1.88801" transform="matrix(-0.724926 -0.688957 0.691576 -0.72218 53.5387 87.1338)" fill="#6057E0"/>
<rect width="13.2161" height="3.77602" rx="1.88801" transform="matrix(-0.724926 -0.688957 0.691576 -0.72218 53.5387 87.1338)" fill="#6057E0"/>
</g>
<g opacity="0.3">
<rect width="13.2411" height="3.76885" rx="1.88443" transform="matrix(-0.999725 0.0234479 -0.0236265 -0.999721 22.9539 82.9199)" fill="#6057E0"/>
<rect width="13.2411" height="3.76885" rx="1.88443" transform="matrix(-0.999725 0.0234479 -0.0236265 -0.999721 22.9539 82.9199)" fill="#6057E0"/>
<rect width="13.2411" height="3.76885" rx="1.88443" transform="matrix(-0.999725 0.0234479 -0.0236265 -0.999721 22.9539 82.9199)" fill="#6057E0"/>
<ellipse cx="1.89158" cy="1.88443" rx="1.89158" ry="1.88443" transform="matrix(-0.999725 0.0234479 -0.0236265 -0.999721 18.3597 88.6821)" fill="#6057E0"/>
<ellipse cx="1.89158" cy="1.88443" rx="1.89158" ry="1.88443" transform="matrix(-0.999725 0.0234479 -0.0236265 -0.999721 18.0927 77.3784)" fill="#6057E0"/>
</g>
<g opacity="0.3">
<rect x="10.038" y="109" width="13.2411" height="3.76884" rx="1.88442" fill="#6057E0"/>
<rect x="10.038" y="109" width="13.2411" height="3.76884" rx="1.88442" fill="#6057E0"/>
<rect x="10.038" y="109" width="13.2411" height="3.76884" rx="1.88442" fill="#6057E0"/>
</g>
<g opacity="0.3">
<rect width="13.2161" height="3.77602" rx="1.88801" transform="matrix(-0.691576 0.72218 -0.724926 -0.688957 88.616 107.175)" fill="#6057E0"/>
<rect width="13.2161" height="3.77602" rx="1.88801" transform="matrix(-0.691576 0.72218 -0.724926 -0.688957 88.616 107.175)" fill="#6057E0"/>
<rect width="13.2161" height="3.77602" rx="1.88801" transform="matrix(-0.691576 0.72218 -0.724926 -0.688957 88.616 107.175)" fill="#6057E0"/>
<rect width="13.2161" height="3.77602" rx="1.88801" transform="matrix(-0.724926 -0.688957 0.691576 -0.72218 86.162 116.563)" fill="#6057E0"/>
<rect width="13.2161" height="3.77602" rx="1.88801" transform="matrix(-0.724926 -0.688957 0.691576 -0.72218 86.162 116.563)" fill="#6057E0"/>
<rect width="13.2161" height="3.77602" rx="1.88801" transform="matrix(-0.724926 -0.688957 0.691576 -0.72218 86.162 116.563)" fill="#6057E0"/>
</g>
<g opacity="0.3">
<rect width="13.2411" height="3.76885" rx="1.88443" transform="matrix(-0.999725 0.0234479 -0.0236265 -0.999721 56.5813 112.349)" fill="#6057E0"/>
<rect width="13.2411" height="3.76885" rx="1.88443" transform="matrix(-0.999725 0.0234479 -0.0236265 -0.999721 56.5813 112.349)" fill="#6057E0"/>
<rect width="13.2411" height="3.76885" rx="1.88443" transform="matrix(-0.999725 0.0234479 -0.0236265 -0.999721 56.5813 112.349)" fill="#6057E0"/>
<ellipse cx="1.89158" cy="1.88443" rx="1.89158" ry="1.88443" transform="matrix(-0.999725 0.0234479 -0.0236265 -0.999721 51.9872 118.111)" fill="#6057E0"/>
<ellipse cx="1.89158" cy="1.88443" rx="1.89158" ry="1.88443" transform="matrix(-0.999725 0.0234479 -0.0236265 -0.999721 51.72 106.807)" fill="#6057E0"/>
</g>
<g opacity="0.3">
<rect x="43.1635" y="15.5" width="13.2411" height="3.76884" rx="1.88442" fill="#6057E0"/>
<rect x="43.1635" y="15.5" width="13.2411" height="3.76884" rx="1.88442" fill="#6057E0"/>
<rect x="43.1635" y="15.5" width="13.2411" height="3.76884" rx="1.88442" fill="#6057E0"/>
</g>
<g opacity="0.3">
<rect x="10.038" y="15.2109" width="13.2411" height="3.76884" rx="1.88442" fill="#6057E0"/>
<rect x="10.038" y="15.2109" width="13.2411" height="3.76884" rx="1.88442" fill="#6057E0"/>
<rect x="10.038" y="15.2109" width="13.2411" height="3.76884" rx="1.88442" fill="#6057E0"/>
<rect x="18.5502" y="10.5" width="13.191" height="3.78317" rx="1.89159" transform="rotate(90 18.5502 10.5)" fill="#6057E0"/>
<rect x="18.5502" y="10.5" width="13.191" height="3.78317" rx="1.89159" transform="rotate(90 18.5502 10.5)" fill="#6057E0"/>
<rect x="18.5502" y="10.5" width="13.191" height="3.78317" rx="1.89159" transform="rotate(90 18.5502 10.5)" fill="#6057E0"/>
</g>
<g opacity="0.3">
<rect width="13.2161" height="3.77602" rx="1.88801" transform="matrix(-0.691576 0.72218 -0.724926 -0.688957 121.24 13.6753)" fill="#6057E0"/>
<rect width="13.2161" height="3.77602" rx="1.88801" transform="matrix(-0.691576 0.72218 -0.724926 -0.688957 121.24 13.6753)" fill="#6057E0"/>
<rect width="13.2161" height="3.77602" rx="1.88801" transform="matrix(-0.691576 0.72218 -0.724926 -0.688957 121.24 13.6753)" fill="#6057E0"/>
<rect width="13.2161" height="3.77602" rx="1.88801" transform="matrix(-0.724926 -0.688957 0.691576 -0.72218 118.786 23.0625)" fill="#6057E0"/>
<rect width="13.2161" height="3.77602" rx="1.88801" transform="matrix(-0.724926 -0.688957 0.691576 -0.72218 118.786 23.0625)" fill="#6057E0"/>
<rect width="13.2161" height="3.77602" rx="1.88801" transform="matrix(-0.724926 -0.688957 0.691576 -0.72218 118.786 23.0625)" fill="#6057E0"/>
</g>
<g opacity="0.3">
<rect width="13.2411" height="3.76885" rx="1.88443" transform="matrix(-0.999725 0.0234479 -0.0236265 -0.999721 89.2048 18.8486)" fill="#6057E0"/>
<rect width="13.2411" height="3.76885" rx="1.88443" transform="matrix(-0.999725 0.0234479 -0.0236265 -0.999721 89.2048 18.8486)" fill="#6057E0"/>
<rect width="13.2411" height="3.76885" rx="1.88443" transform="matrix(-0.999725 0.0234479 -0.0236265 -0.999721 89.2048 18.8486)" fill="#6057E0"/>
<ellipse cx="1.89158" cy="1.88443" rx="1.89158" ry="1.88443" transform="matrix(-0.999725 0.0234479 -0.0236265 -0.999721 84.6107 24.6108)" fill="#6057E0"/>
<ellipse cx="1.89158" cy="1.88443" rx="1.89158" ry="1.88443" transform="matrix(-0.999725 0.0234479 -0.0236265 -0.999721 84.3436 13.3071)" fill="#6057E0"/>
</g>
<g opacity="0.3">
<rect x="75.7871" y="46.0713" width="13.2411" height="3.76884" rx="1.88442" fill="#6057E0"/>
<rect x="75.7871" y="46.0713" width="13.2411" height="3.76884" rx="1.88442" fill="#6057E0"/>
<rect x="75.7871" y="46.0713" width="13.2411" height="3.76884" rx="1.88442" fill="#6057E0"/>
</g>
<g opacity="0.3">
<rect x="43.1635" y="45.7822" width="13.2411" height="3.76884" rx="1.88442" fill="#6057E0"/>
<rect x="43.1635" y="45.7822" width="13.2411" height="3.76884" rx="1.88442" fill="#6057E0"/>
<rect x="43.1635" y="45.7822" width="13.2411" height="3.76884" rx="1.88442" fill="#6057E0"/>
<rect x="51.6757" y="41.0713" width="13.191" height="3.78317" rx="1.89159" transform="rotate(90 51.6757 41.0713)" fill="#6057E0"/>
<rect x="51.6757" y="41.0713" width="13.191" height="3.78317" rx="1.89159" transform="rotate(90 51.6757 41.0713)" fill="#6057E0"/>
<rect x="51.6757" y="41.0713" width="13.191" height="3.78317" rx="1.89159" transform="rotate(90 51.6757 41.0713)" fill="#6057E0"/>
</g>
<g opacity="0.3">
<rect width="13.2411" height="3.76885" rx="1.88443" transform="matrix(-0.999725 0.0234479 -0.0236265 -0.999721 121.828 49.4199)" fill="#6057E0"/>
<rect width="13.2411" height="3.76885" rx="1.88443" transform="matrix(-0.999725 0.0234479 -0.0236265 -0.999721 121.828 49.4199)" fill="#6057E0"/>
<rect width="13.2411" height="3.76885" rx="1.88443" transform="matrix(-0.999725 0.0234479 -0.0236265 -0.999721 121.828 49.4199)" fill="#6057E0"/>
<ellipse cx="1.89158" cy="1.88443" rx="1.89158" ry="1.88443" transform="matrix(-0.999725 0.0234479 -0.0236265 -0.999721 117.234 55.1821)" fill="#6057E0"/>
<ellipse cx="1.89158" cy="1.88443" rx="1.89158" ry="1.88443" transform="matrix(-0.999725 0.0234479 -0.0236265 -0.999721 116.967 43.8784)" fill="#6057E0"/>
</g>
<g opacity="0.3">
<rect x="108.913" y="79.5713" width="13.2411" height="3.76884" rx="1.88442" fill="#6057E0"/>
<rect x="108.913" y="79.5713" width="13.2411" height="3.76884" rx="1.88442" fill="#6057E0"/>
<rect x="108.913" y="79.5713" width="13.2411" height="3.76884" rx="1.88442" fill="#6057E0"/>
</g>
<g opacity="0.3">
<rect x="75.7871" y="79.2822" width="13.2411" height="3.76884" rx="1.88442" fill="#6057E0"/>
<rect x="75.7871" y="79.2822" width="13.2411" height="3.76884" rx="1.88442" fill="#6057E0"/>
<rect x="75.7871" y="79.2822" width="13.2411" height="3.76884" rx="1.88442" fill="#6057E0"/>
<rect x="84.2992" y="74.5713" width="13.191" height="3.78317" rx="1.89159" transform="rotate(90 84.2992 74.5713)" fill="#6057E0"/>
<rect x="84.2992" y="74.5713" width="13.191" height="3.78317" rx="1.89159" transform="rotate(90 84.2992 74.5713)" fill="#6057E0"/>
<rect x="84.2992" y="74.5713" width="13.191" height="3.78317" rx="1.89159" transform="rotate(90 84.2992 74.5713)" fill="#6057E0"/>
</g>
<g opacity="0.3">
<rect x="108.913" y="108.711" width="13.2411" height="3.76884" rx="1.88442" fill="#6057E0"/>
<rect x="108.913" y="108.711" width="13.2411" height="3.76884" rx="1.88442" fill="#6057E0"/>
<rect x="108.913" y="108.711" width="13.2411" height="3.76884" rx="1.88442" fill="#6057E0"/>
<rect x="117.425" y="104" width="13.191" height="3.78317" rx="1.89159" transform="rotate(90 117.425 104)" fill="#6057E0"/>
<rect x="117.425" y="104" width="13.191" height="3.78317" rx="1.89159" transform="rotate(90 117.425 104)" fill="#6057E0"/>
<rect x="117.425" y="104" width="13.191" height="3.78317" rx="1.89159" transform="rotate(90 117.425 104)" fill="#6057E0"/>
</g>
</svg>
