<svg width="26" height="25" viewBox="0 0 26 25" fill="none" xmlns="http://www.w3.org/2000/svg">
<path d="M12.4119 1.16297C12.7894 0.411329 13.8698 0.433176 14.2166 1.19947L17.0869 7.54167C17.2265 7.85007 17.5126 8.06691 17.8473 8.11793L24.7293 9.16708C25.5608 9.29384 25.8739 10.3281 25.2522 10.8947L20.1074 15.5844C19.8573 15.8125 19.7395 16.1516 19.7944 16.4856L20.9232 23.355C21.0596 24.185 20.1727 24.8023 19.4417 24.3862L13.3917 20.9425C13.0975 20.775 12.7386 20.7677 12.4379 20.9232L6.25353 24.1195C5.50632 24.5057 4.64515 23.853 4.81498 23.0292L6.22065 16.2111C6.289 15.8796 6.18498 15.536 5.94424 15.298L0.99326 10.4041C0.395063 9.81279 0.749684 8.79208 1.58564 8.69903L8.50444 7.92898C8.84087 7.89154 9.13551 7.68644 9.28744 7.38394L12.4119 1.16297Z" fill="#FFD371"/>
</svg>
